<?xml version="1.0" standalone="no"?>
<!DOCTYPE svg PUBLIC "-//W3C//DTD SVG 20010904//EN"
 "http://www.w3.org/TR/2001/REC-SVG-20010904/DTD/svg10.dtd">
<svg version="1.0" xmlns="http://www.w3.org/2000/svg"
 width="114.000000pt" height="114.000000pt" viewBox="0 0 114.000000 114.000000"
 preserveAspectRatio="xMidYMid meet">
<metadata>
Created by potrace 1.14, written by Peter Selinger 2001-2017
</metadata>
<g transform="translate(0.000000,114.000000) scale(0.100000,-0.100000)"
fill="#000000" stroke="none">
<path d="M640 1126 c-68 -12 -213 -84 -273 -134 -34 -29 -63 -48 -87 -59 -8
-3 -43 -28 -77 -56 -50 -40 -62 -55 -66 -85 -11 -77 -21 -99 -73 -153 -29 -31
-56 -68 -59 -82 -13 -49 11 -207 34 -230 6 -6 25 -16 43 -21 28 -10 33 -17 45
-71 8 -33 27 -88 44 -122 41 -83 73 -102 182 -105 100 -2 150 19 184 79 12 21
30 46 40 54 36 31 106 49 177 46 60 -3 76 0 125 25 53 28 62 29 156 26 l100
-3 0 440 0 440 -55 3 c-30 1 -62 5 -70 8 -32 12 -306 13 -370 0z"/>
</g>
</svg>
